# Blender v3.2.2 OBJ File: ''
# www.blender.org
mtllib stool.mtl
o stool_Mesh
v -0.277855 1.398787 0.030689
v -0.039901 1.398787 0.268643
v -0.015655 1.398787 0.244397
v -0.253609 1.398787 0.006443
v -0.333847 1.452661 0.108474
v -0.351028 1.452661 0.000000
v -0.363240 1.440449 0.000000
v -0.345462 1.440449 0.112248
v -0.283988 1.452661 0.206329
v -0.293867 1.440449 0.213507
v -0.345462 1.391593 0.112248
v -0.293867 1.391593 0.213507
v -0.363240 1.391593 0.000000
v -0.108474 1.452661 0.333847
v -0.206329 1.452661 0.283988
v -0.213507 1.440449 0.293867
v -0.112247 1.440449 0.345462
v 0.000000 1.452661 0.000000
v -0.333847 1.452661 -0.108473
v -0.345462 1.440449 -0.112247
v -0.345462 1.391593 -0.112247
v 0.333847 1.452661 0.108474
v 0.351028 1.452661 0.000000
v 0.283988 1.452661 0.206329
v 0.206329 1.452661 0.283988
v 0.108474 1.452661 0.333847
v 0.000000 1.452661 0.351028
v 0.293867 1.440449 0.213507
v 0.345462 1.440449 0.112248
v 0.213507 1.440449 0.293868
v 0.112247 1.440449 0.345462
v 0.000000 1.440449 0.363240
v -0.213507 1.391593 0.293867
v -0.112247 1.391593 0.345462
v 0.000000 1.391593 0.363240
v 0.112247 1.391593 0.345462
v 0.213507 1.391593 0.293868
v 0.293867 1.391593 0.213507
v 0.345462 1.391593 0.112248
v 0.363240 1.391593 0.000000
v 0.363240 1.440449 0.000000
v 0.345462 1.391593 -0.112247
v 0.345462 1.440449 -0.112247
v 0.293867 1.391593 -0.213507
v 0.293867 1.440449 -0.213507
v 0.283987 1.452661 -0.206329
v 0.333847 1.452661 -0.108473
v 0.213507 1.391593 -0.293867
v 0.213507 1.440449 -0.293867
v 0.206329 1.452661 -0.283987
v -0.108474 1.452661 -0.333847
v 0.000000 1.452661 -0.351028
v 0.000000 1.440449 -0.363240
v -0.112247 1.440449 -0.345462
v 0.108474 1.452661 -0.333847
v 0.112247 1.440449 -0.345462
v 0.000000 1.391593 -0.363240
v -0.112247 1.391593 -0.345462
v 0.112247 1.391593 -0.345462
v -0.206329 1.452661 -0.283987
v -0.213507 1.440449 -0.293867
v -0.213507 1.391593 -0.293867
v -0.283988 1.452661 -0.206329
v -0.293867 1.440449 -0.213507
v -0.293867 1.391593 -0.213507
v 0.000000 1.391593 0.000000
v -0.039901 1.296404 0.268643
v -0.015655 1.296404 0.244397
v -0.277855 1.296404 0.030689
v -0.253609 1.296404 0.006443
v -0.290083 1.415748 -0.046400
v -0.290083 1.415748 0.046400
v -0.197283 1.415748 0.046400
v -0.197283 1.415748 -0.046400
v -0.501240 0.003680 0.046400
v -0.408440 0.003680 0.046400
v -0.501240 0.003680 -0.046400
v -0.408440 0.003680 -0.046400
v -0.322801 1.019531 0.039453
v -0.040354 1.019531 0.321899
v -0.013173 1.019531 0.294717
v -0.295619 1.019531 0.012271
v -0.040354 0.981090 0.321899
v -0.013173 0.981090 0.294717
v -0.322801 0.981090 0.039453
v -0.295619 0.981090 0.012271
v -0.411769 0.544772 0.021479
v -0.014331 0.544772 0.418917
v 0.012851 0.544772 0.391735
v -0.384587 0.544772 -0.005703
v -0.014331 0.506331 0.418917
v 0.012851 0.506331 0.391735
v -0.411769 0.506331 0.021479
v -0.384587 0.506331 -0.005703
v 0.030689 1.398787 0.277855
v 0.268643 1.398787 0.039901
v 0.244397 1.398787 0.015655
v 0.006443 1.398787 0.253609
v 0.268643 1.296404 0.039901
v 0.244397 1.296404 0.015655
v 0.030689 1.296404 0.277855
v 0.006443 1.296404 0.253609
v -0.046400 1.415748 0.290083
v 0.046400 1.415748 0.290083
v 0.046400 1.415748 0.197283
v -0.046400 1.415748 0.197283
v 0.046400 0.003680 0.501240
v 0.046400 0.003680 0.408440
v -0.046400 0.003680 0.501240
v -0.046400 0.003680 0.408440
v 0.039453 1.019531 0.322801
v 0.321899 1.019531 0.040354
v 0.294717 1.019531 0.013173
v 0.012271 1.019531 0.295619
v 0.321899 0.981090 0.040354
v 0.294717 0.981090 0.013173
v 0.039453 0.981090 0.322801
v 0.012271 0.981090 0.295619
v 0.021479 0.544772 0.411769
v 0.418917 0.544772 0.014331
v 0.391735 0.544772 -0.012851
v -0.005703 0.544772 0.384587
v 0.418917 0.506331 0.014331
v 0.391735 0.506331 -0.012851
v 0.021479 0.506331 0.411769
v -0.005703 0.506331 0.384587
v 0.277855 1.398787 -0.030689
v 0.039901 1.398787 -0.268643
v 0.015655 1.398787 -0.244397
v 0.253609 1.398787 -0.006443
v 0.039901 1.296404 -0.268643
v 0.015655 1.296404 -0.244397
v 0.277855 1.296404 -0.030689
v 0.253609 1.296404 -0.006443
v 0.290083 1.415748 0.046400
v 0.290083 1.415748 -0.046400
v 0.197283 1.415748 -0.046400
v 0.197283 1.415748 0.046400
v 0.501240 0.003680 -0.046400
v 0.408440 0.003680 -0.046400
v 0.501240 0.003680 0.046400
v 0.408440 0.003680 0.046400
v 0.322801 1.019531 -0.039453
v 0.040354 1.019531 -0.321899
v 0.013173 1.019531 -0.294717
v 0.295619 1.019531 -0.012271
v 0.040354 0.981090 -0.321899
v 0.013173 0.981090 -0.294717
v 0.322801 0.981090 -0.039453
v 0.295619 0.981090 -0.012271
v 0.411769 0.544772 -0.021479
v 0.014331 0.544772 -0.418917
v -0.012851 0.544772 -0.391735
v 0.384587 0.544772 0.005703
v 0.014331 0.506331 -0.418917
v -0.012851 0.506331 -0.391735
v 0.411769 0.506331 -0.021479
v 0.384587 0.506331 0.005703
v -0.030689 1.398787 -0.277855
v -0.268643 1.398787 -0.039901
v -0.244397 1.398787 -0.015655
v -0.006443 1.398787 -0.253609
v -0.268643 1.296404 -0.039901
v -0.244397 1.296404 -0.015655
v -0.030689 1.296404 -0.277855
v -0.006443 1.296404 -0.253609
v 0.046400 1.415748 -0.290083
v -0.046400 1.415748 -0.290083
v -0.046400 1.415748 -0.197283
v 0.046400 1.415748 -0.197283
v -0.046400 0.003680 -0.501240
v -0.046400 0.003680 -0.408440
v 0.046400 0.003680 -0.501240
v 0.046400 0.003680 -0.408440
v -0.039453 1.019531 -0.322800
v -0.321899 1.019531 -0.040354
v -0.294717 1.019531 -0.013173
v -0.012271 1.019531 -0.295619
v -0.321899 0.981090 -0.040354
v -0.294717 0.981090 -0.013173
v -0.039453 0.981090 -0.322800
v -0.012271 0.981090 -0.295619
v -0.021479 0.544772 -0.411769
v -0.418917 0.544772 -0.014331
v -0.391735 0.544772 0.012851
v 0.005703 0.544772 -0.384587
v -0.418917 0.506331 -0.014331
v -0.391735 0.506331 0.012851
v -0.021479 0.506331 -0.411769
v 0.005703 0.506331 -0.384587
vt 0.483643 0.279297
vt 0.483643 0.366211
vt 0.474609 0.366211
vt 0.474609 0.279297
vt 0.622559 0.559082
vt 0.584473 0.582520
vt 0.576660 0.580078
vt 0.616211 0.555908
vt 0.673828 0.541992
vt 0.668945 0.537354
vt 0.597168 0.545654
vt 0.651855 0.525635
vt 0.552246 0.572998
vt 0.793945 0.537354
vt 0.733887 0.535156
vt 0.733398 0.530518
vt 0.796387 0.532715
vt 0.670410 0.537109
vt 0.750488 0.633057
vt 0.561523 0.610352
vt 0.552734 0.609375
vt 0.525391 0.605957
vt 0.945313 0.655029
vt 0.919434 0.686279
vt 0.948730 0.623779
vt 0.933594 0.593018
vt 0.897949 0.567383
vt 0.850586 0.548340
vt 0.958496 0.623291
vt 0.955566 0.655518
vt 0.943359 0.590820
vt 0.904785 0.563965
vt 0.854980 0.544189
vt 0.665527 0.522461
vt 0.732422 0.516357
vt 0.802734 0.518799
vt 0.869141 0.531738
vt 0.924805 0.553955
vt 0.969727 0.584717
vt 0.987305 0.622314
vt 0.984863 0.659180
vt 0.953613 0.697510
vt 0.927246 0.689697
vt 0.902832 0.724854
vt 0.884277 0.713379
vt 0.840820 0.742920
vt 0.829102 0.729980
vt 0.825195 0.725586
vt 0.878418 0.709717
vt 0.774414 0.752563
vt 0.766113 0.738281
vt 0.764648 0.732910
vt 0.602051 0.697021
vt 0.647949 0.716797
vt 0.642578 0.720947
vt 0.595215 0.700195
vt 0.703125 0.729248
vt 0.700684 0.733643
vt 0.764648 0.738281
vt 0.627930 0.732910
vt 0.574707 0.709717
vt 0.692383 0.747070
vt 0.759766 0.752808
vt 0.568848 0.670898
vt 0.558594 0.672363
vt 0.535645 0.681885
vt 0.556152 0.640625
vt 0.546875 0.640869
vt 0.519043 0.641113
vt 0.530273 0.674805
vt 0.835938 0.967621
vt 0.776855 0.975403
vt 0.750488 0.876892
vt 0.716797 0.974319
vt 0.659668 0.964539
vt 0.609375 0.946594
vt 0.575684 0.920593
vt 0.558105 0.891724
vt 0.558594 0.861816
vt 0.575684 0.833008
vt 0.609375 0.807007
vt 0.660156 0.789063
vt 0.716797 0.779175
vt 0.777344 0.777954
vt 0.838379 0.785400
vt 0.890137 0.803955
vt 0.928711 0.828613
vt 0.951660 0.858887
vt 0.951660 0.895142
vt 0.929199 0.925659
vt 0.890137 0.951294
vt 0.945313 0.510498
vt 0.945313 0.452148
vt 0.984375 0.452148
vt 0.984375 0.510498
vt 0.561523 0.452148
vt 0.561523 0.432129
vt 0.945313 0.432129
vt 0.561523 0.510498
vt 0.522461 0.510498
vt 0.522461 0.452148
vt 0.561523 0.373535
vt 0.945313 0.373535
vt 0.807617 0.906982
vt 0.688965 0.906982
vt 0.688965 0.847412
vt 0.807617 0.847412
vt 0.265625 0.960876
vt 0.265625 0.016113
vt 0.386230 0.024902
vt 0.386230 0.969955
vt 0.688965 0.847412
vt 0.807617 0.847412
vt 0.807617 0.906982
vt 0.688965 0.906982
vt 0.143799 0.960876
vt 0.023148 0.969955
vt 0.023148 0.024902
vt 0.143799 0.016113
vt 0.508301 0.969955
vt 0.508301 0.024902
vt 0.783203 0.112793
vt 0.783203 0.367188
vt 0.734375 0.367188
vt 0.734375 0.112793
vt 0.517090 0.711914
vt 0.560059 0.711914
vt 0.560059 0.733398
vt 0.517090 0.733398
vt 0.831543 0.367188
vt 0.831543 0.112793
vt 0.880371 0.112793
vt 0.880371 0.367188
vt 0.571289 0.543945
vt 0.528320 0.543945
vt 0.528320 0.522217
vt 0.571289 0.522217
vt 0.929199 0.112793
vt 0.929199 0.367188
vt 0.574219 0.004883
vt 0.574219 0.367188
vt 0.524902 0.367188
vt 0.524902 0.004883
vt 0.520020 0.742920
vt 0.566406 0.742920
vt 0.566406 0.766357
vt 0.520020 0.766357
vt 0.623047 0.367188
vt 0.623047 0.004883
vt 0.672363 0.004883
vt 0.672363 0.367188
vt 0.639160 0.767700
vt 0.592773 0.767700
vt 0.592773 0.744385
vt 0.639160 0.744385
vt 0.721680 0.004883
vt 0.721680 0.367188
vt 0.483643 0.279297
vt 0.483643 0.366211
vt 0.474609 0.366211
vt 0.474609 0.279297
vt 0.945313 0.510498
vt 0.945313 0.452148
vt 0.984375 0.452148
vt 0.984375 0.510498
vt 0.561523 0.452148
vt 0.561523 0.432129
vt 0.945313 0.432129
vt 0.561523 0.510498
vt 0.522461 0.510498
vt 0.522461 0.452148
vt 0.561523 0.373535
vt 0.945313 0.373535
vt 0.807617 0.906982
vt 0.688965 0.906982
vt 0.688965 0.847412
vt 0.807617 0.847412
vt 0.265625 0.960876
vt 0.265625 0.016113
vt 0.386230 0.024902
vt 0.386230 0.969955
vt 0.688965 0.847412
vt 0.807617 0.847412
vt 0.807617 0.906982
vt 0.688965 0.906982
vt 0.143799 0.960876
vt 0.023148 0.969955
vt 0.023148 0.024902
vt 0.143799 0.016113
vt 0.508301 0.969955
vt 0.508301 0.024902
vt 0.783203 0.112793
vt 0.783203 0.367188
vt 0.734375 0.367188
vt 0.734375 0.112793
vt 0.517090 0.711914
vt 0.560059 0.711914
vt 0.560059 0.733398
vt 0.517090 0.733398
vt 0.831543 0.367188
vt 0.831543 0.112793
vt 0.880371 0.112793
vt 0.880371 0.367188
vt 0.571289 0.543945
vt 0.528320 0.543945
vt 0.528320 0.522217
vt 0.571289 0.522217
vt 0.929199 0.112793
vt 0.929199 0.367188
vt 0.574219 0.004883
vt 0.574219 0.367188
vt 0.524902 0.367188
vt 0.524902 0.004883
vt 0.520020 0.742920
vt 0.566406 0.742920
vt 0.566406 0.766357
vt 0.520020 0.766357
vt 0.623047 0.367188
vt 0.623047 0.004883
vt 0.672363 0.004883
vt 0.672363 0.367188
vt 0.639160 0.767700
vt 0.592773 0.767700
vt 0.592773 0.744385
vt 0.639160 0.744385
vt 0.721680 0.004883
vt 0.721680 0.367188
vt 0.483643 0.279297
vt 0.483643 0.366211
vt 0.474609 0.366211
vt 0.474609 0.279297
vt 0.945313 0.510498
vt 0.945313 0.452148
vt 0.984375 0.452148
vt 0.984375 0.510498
vt 0.561523 0.452148
vt 0.561523 0.432129
vt 0.945313 0.432129
vt 0.561523 0.510498
vt 0.522461 0.510498
vt 0.522461 0.452148
vt 0.561523 0.373535
vt 0.945313 0.373535
vt 0.807617 0.906982
vt 0.688965 0.906982
vt 0.688965 0.847412
vt 0.807617 0.847412
vt 0.265625 0.960876
vt 0.265625 0.016113
vt 0.386230 0.024902
vt 0.386230 0.969955
vt 0.688965 0.847412
vt 0.807617 0.847412
vt 0.807617 0.906982
vt 0.688965 0.906982
vt 0.143799 0.960876
vt 0.023148 0.969955
vt 0.023148 0.024902
vt 0.143799 0.016113
vt 0.508301 0.969955
vt 0.508301 0.024902
vt 0.783203 0.112793
vt 0.783203 0.367188
vt 0.734375 0.367188
vt 0.734375 0.112793
vt 0.517090 0.711914
vt 0.560059 0.711914
vt 0.560059 0.733398
vt 0.517090 0.733398
vt 0.831543 0.367188
vt 0.831543 0.112793
vt 0.880371 0.112793
vt 0.880371 0.367188
vt 0.571289 0.543945
vt 0.528320 0.543945
vt 0.528320 0.522217
vt 0.571289 0.522217
vt 0.929199 0.112793
vt 0.929199 0.367188
vt 0.574219 0.004883
vt 0.574219 0.367188
vt 0.524902 0.367188
vt 0.524902 0.004883
vt 0.520020 0.742920
vt 0.566406 0.742920
vt 0.566406 0.766357
vt 0.520020 0.766357
vt 0.623047 0.367188
vt 0.623047 0.004883
vt 0.672363 0.004883
vt 0.672363 0.367188
vt 0.639160 0.767700
vt 0.592773 0.767700
vt 0.592773 0.744385
vt 0.639160 0.744385
vt 0.721680 0.004883
vt 0.721680 0.367188
vt 0.483643 0.279297
vt 0.483643 0.366211
vt 0.474609 0.366211
vt 0.474609 0.279297
vt 0.945313 0.510498
vt 0.945313 0.452148
vt 0.984375 0.452148
vt 0.984375 0.510498
vt 0.561523 0.452148
vt 0.561523 0.432129
vt 0.945313 0.432129
vt 0.561523 0.510498
vt 0.522461 0.510498
vt 0.522461 0.452148
vt 0.561523 0.373535
vt 0.945313 0.373535
vt 0.807617 0.906982
vt 0.688965 0.906982
vt 0.688965 0.847412
vt 0.807617 0.847412
vt 0.265625 0.960876
vt 0.265625 0.016113
vt 0.386230 0.024902
vt 0.386230 0.969955
vt 0.688965 0.847412
vt 0.807617 0.847412
vt 0.807617 0.906982
vt 0.688965 0.906982
vt 0.143799 0.960876
vt 0.023148 0.969955
vt 0.023148 0.024902
vt 0.143799 0.016113
vt 0.508301 0.969955
vt 0.508301 0.024902
vt 0.783203 0.112793
vt 0.783203 0.367188
vt 0.734375 0.367188
vt 0.734375 0.112793
vt 0.517090 0.711914
vt 0.560059 0.711914
vt 0.560059 0.733398
vt 0.517090 0.733398
vt 0.831543 0.367188
vt 0.831543 0.112793
vt 0.880371 0.112793
vt 0.880371 0.367188
vt 0.571289 0.543945
vt 0.528320 0.543945
vt 0.528320 0.522217
vt 0.571289 0.522217
vt 0.929199 0.112793
vt 0.929199 0.367188
vt 0.574219 0.004883
vt 0.574219 0.367188
vt 0.524902 0.367188
vt 0.524902 0.004883
vt 0.520020 0.742920
vt 0.566406 0.742920
vt 0.566406 0.766357
vt 0.520020 0.766357
vt 0.623047 0.367188
vt 0.623047 0.004883
vt 0.672363 0.004883
vt 0.672363 0.367188
vt 0.639160 0.767700
vt 0.592773 0.767700
vt 0.592773 0.744385
vt 0.639160 0.744385
vt 0.721680 0.004883
vt 0.721680 0.367188
vn 0.0000 1.0000 -0.0000
vn -0.6725 0.7071 0.2185
vn -0.7071 0.7071 -0.0000
vn -0.5721 0.7071 0.4156
vn -0.9511 -0.0000 0.3090
vn -0.8090 -0.0000 0.5878
vn -1.0000 -0.0000 -0.0000
vn -0.2185 0.7071 0.6725
vn -0.4156 0.7071 0.5721
vn -0.6725 0.7071 -0.2185
vn -0.9511 -0.0000 -0.3090
vn 0.6725 0.7071 0.2185
vn 0.5721 0.7071 0.4156
vn 0.4156 0.7071 0.5721
vn 0.2185 0.7071 0.6725
vn 0.0000 0.7071 0.7071
vn -0.5878 0.0000 0.8090
vn -0.3090 0.0000 0.9511
vn 0.0000 0.0000 1.0000
vn 0.3090 0.0000 0.9511
vn 0.5878 -0.0000 0.8090
vn 0.8090 -0.0000 0.5878
vn 0.9511 -0.0000 0.3090
vn 1.0000 0.0000 -0.0000
vn 0.9511 -0.0000 -0.3090
vn 0.8090 -0.0000 -0.5878
vn 0.5721 0.7071 -0.4156
vn 0.6725 0.7071 -0.2185
vn 0.7071 0.7071 -0.0000
vn 0.5878 -0.0000 -0.8090
vn 0.4156 0.7071 -0.5721
vn -0.2185 0.7071 -0.6725
vn 0.0000 0.7071 -0.7071
vn 0.2185 0.7071 -0.6725
vn 0.0000 0.0000 -1.0000
vn -0.3090 0.0000 -0.9511
vn 0.3090 0.0000 -0.9511
vn -0.4156 0.7071 -0.5721
vn -0.5878 0.0000 -0.8090
vn -0.5721 0.7071 -0.4156
vn -0.8090 -0.0000 -0.5878
vn 0.0000 -1.0000 -0.0000
vn 0.7071 -0.0000 0.7071
vn -0.7071 0.0000 -0.7071
vn -0.7071 -0.0000 0.7071
vn 0.7071 0.0000 -0.7071
vn -0.9890 0.1479 0.0000
vn 0.9890 -0.1479 0.0000
vn 0.0000 0.1479 0.9890
vn 0.0000 -0.1479 -0.9890
vn 0.9890 0.1479 0.0000
vn -0.9890 -0.1479 0.0000
vn 0.0000 0.1479 -0.9890
vn 0.0000 -0.1479 0.9890
usemtl stool
s 1
f 1/1/1 2/2/1 3/3/1 4/4/1
f 5/5/2 6/6/3 7/7/3 8/8/2
f 9/9/4 5/5/2 8/8/2 10/10/4
f 8/8/5 11/11/5 12/12/6 10/10/6
f 7/7/7 13/13/7 11/11/5 8/8/5
f 14/14/8 15/15/9 16/16/9 17/17/8
f 15/15/9 9/9/4 10/18/4 16/16/9
f 9/9/1 15/15/1 18/19/1
f 5/5/1 18/19/1 6/6/1
f 6/6/3 19/20/10 20/21/10 7/7/3
f 20/21/11 21/22/11 13/13/7 7/7/7
f 22/23/1 23/24/1 18/19/1
f 24/25/1 18/19/1 25/26/1
f 26/27/1 25/26/1 18/19/1
f 27/28/1 18/19/1 14/14/1
f 22/23/12 24/25/13 28/29/13 29/30/12
f 24/25/13 25/26/14 30/31/14 28/29/13
f 25/26/14 26/27/15 31/32/15 30/31/14
f 26/27/15 27/28/16 32/33/16 31/32/15
f 27/28/16 14/14/8 17/17/8 32/33/16
f 10/18/6 12/34/6 33/35/17 16/16/17
f 16/16/17 33/35/17 34/36/18 17/17/18
f 17/17/18 34/36/18 35/37/19 32/33/19
f 32/33/19 35/37/19 36/38/20 31/32/20
f 31/32/20 36/38/20 37/39/21 30/31/21
f 30/31/21 37/39/21 38/40/22 28/29/22
f 28/29/22 38/40/22 39/41/23 29/30/23
f 29/30/23 39/41/23 40/42/24 41/43/24
f 41/43/24 40/42/24 42/44/25 43/45/25
f 43/45/25 42/44/25 44/46/26 45/47/26
f 46/48/27 47/49/28 43/45/28 45/47/27
f 47/49/28 23/24/29 41/43/29 43/45/28
f 45/47/26 44/46/26 48/50/30 49/51/30
f 50/52/31 46/48/27 45/47/27 49/51/31
f 46/48/1 18/19/1 47/49/1
f 22/23/12 29/30/12 41/43/29 23/24/29
f 51/53/32 52/54/33 53/55/33 54/56/32
f 52/54/33 55/57/34 56/58/34 53/55/33
f 55/57/34 50/52/31 49/59/31 56/58/34
f 50/52/1 55/57/1 18/19/1
f 52/54/1 51/53/1 18/19/1
f 53/55/35 57/60/35 58/61/36 54/56/36
f 56/58/37 59/62/37 57/60/35 53/55/35
f 49/59/30 48/63/30 59/62/37 56/58/37
f 60/64/38 51/53/32 54/56/32 61/65/38
f 54/56/36 58/61/36 62/66/39 61/65/39
f 63/67/40 60/64/38 61/65/38 64/68/40
f 19/20/10 63/67/40 64/68/40 20/21/10
f 19/20/1 6/6/1 18/19/1
f 63/67/1 18/19/1 60/64/1
f 64/68/41 65/69/41 21/22/11 20/21/11
f 61/65/39 62/70/39 65/69/41 64/68/41
f 36/71/42 35/72/42 66/73/42
f 35/72/42 34/74/42 66/73/42
f 33/75/42 12/76/42 66/73/42
f 12/76/42 11/77/42 66/73/42
f 13/78/42 21/79/42 66/73/42
f 65/80/42 62/81/42 66/73/42
f 62/81/42 58/82/42 66/73/42
f 57/83/42 59/84/42 66/73/42
f 48/85/42 44/86/42 66/73/42
f 44/86/42 42/87/42 66/73/42
f 40/88/42 39/89/42 66/73/42
f 38/90/42 37/91/42 66/73/42
f 2/92/43 67/93/43 68/94/43 3/95/43
f 67/93/42 69/96/42 70/97/42 68/98/42
f 69/96/44 1/99/44 4/100/44 70/101/44
f 69/96/45 67/93/45 2/92/45 1/99/45
f 4/102/46 3/103/46 68/98/46 70/97/46
f 71/104/1 72/105/1 73/106/1 74/107/1
f 72/108/19 75/109/19 76/110/19 73/111/19
f 75/112/42 77/113/42 78/114/42 76/115/42
f 71/116/35 74/117/35 78/118/35 77/119/35
f 77/119/47 75/109/47 72/108/47 71/116/47
f 74/120/48 73/111/48 76/110/48 78/121/48
f 79/122/1 80/123/1 81/124/1 82/125/1
f 80/126/43 83/127/43 84/128/43 81/129/43
f 83/130/42 85/131/42 86/132/42 84/133/42
f 85/134/44 79/135/44 82/136/44 86/137/44
f 85/131/45 83/130/45 80/123/45 79/122/45
f 82/138/46 81/139/46 84/133/46 86/132/46
f 87/140/1 88/141/1 89/142/1 90/143/1
f 88/144/43 91/145/43 92/146/43 89/147/43
f 91/148/42 93/149/42 94/150/42 92/151/42
f 93/152/44 87/153/44 90/154/44 94/155/44
f 93/149/45 91/148/45 88/141/45 87/140/45
f 90/156/46 89/157/46 92/151/46 94/150/46
f 95/158/1 96/159/1 97/160/1 98/161/1
f 96/162/46 99/163/46 100/164/46 97/165/46
f 99/163/42 101/166/42 102/167/42 100/168/42
f 101/166/45 95/169/45 98/170/45 102/171/45
f 101/166/43 99/163/43 96/162/43 95/169/43
f 98/172/44 97/173/44 100/168/44 102/167/44
f 103/174/1 104/175/1 105/176/1 106/177/1
f 104/178/24 107/179/24 108/180/24 105/181/24
f 107/182/42 109/183/42 110/184/42 108/185/42
f 103/186/7 106/187/7 110/188/7 109/189/7
f 109/189/49 107/179/49 104/178/49 103/186/49
f 106/190/50 105/181/50 108/180/50 110/191/50
f 111/192/1 112/193/1 113/194/1 114/195/1
f 112/196/46 115/197/46 116/198/46 113/199/46
f 115/200/42 117/201/42 118/202/42 116/203/42
f 117/204/45 111/205/45 114/206/45 118/207/45
f 117/201/43 115/200/43 112/193/43 111/192/43
f 114/208/44 113/209/44 116/203/44 118/202/44
f 119/210/1 120/211/1 121/212/1 122/213/1
f 120/214/46 123/215/46 124/216/46 121/217/46
f 123/218/42 125/219/42 126/220/42 124/221/42
f 125/222/45 119/223/45 122/224/45 126/225/45
f 125/219/43 123/218/43 120/211/43 119/210/43
f 122/226/44 121/227/44 124/221/44 126/220/44
f 127/228/1 128/229/1 129/230/1 130/231/1
f 128/232/44 131/233/44 132/234/44 129/235/44
f 131/233/42 133/236/42 134/237/42 132/238/42
f 133/236/43 127/239/43 130/240/43 134/241/43
f 133/236/46 131/233/46 128/232/46 127/239/46
f 130/242/45 129/243/45 132/238/45 134/237/45
f 135/244/1 136/245/1 137/246/1 138/247/1
f 136/248/35 139/249/35 140/250/35 137/251/35
f 139/252/42 141/253/42 142/254/42 140/255/42
f 135/256/19 138/257/19 142/258/19 141/259/19
f 141/259/51 139/249/51 136/248/51 135/256/51
f 138/260/52 137/251/52 140/250/52 142/261/52
f 143/262/1 144/263/1 145/264/1 146/265/1
f 144/266/44 147/267/44 148/268/44 145/269/44
f 147/270/42 149/271/42 150/272/42 148/273/42
f 149/274/43 143/275/43 146/276/43 150/277/43
f 149/271/46 147/270/46 144/263/46 143/262/46
f 146/278/45 145/279/45 148/273/45 150/272/45
f 151/280/1 152/281/1 153/282/1 154/283/1
f 152/284/44 155/285/44 156/286/44 153/287/44
f 155/288/42 157/289/42 158/290/42 156/291/42
f 157/292/43 151/293/43 154/294/43 158/295/43
f 157/289/46 155/288/46 152/281/46 151/280/46
f 154/296/45 153/297/45 156/291/45 158/290/45
f 159/298/1 160/299/1 161/300/1 162/301/1
f 160/302/45 163/303/45 164/304/45 161/305/45
f 163/303/42 165/306/42 166/307/42 164/308/42
f 165/306/46 159/309/46 162/310/46 166/311/46
f 165/306/44 163/303/44 160/302/44 159/309/44
f 162/312/43 161/313/43 164/308/43 166/307/43
f 167/314/1 168/315/1 169/316/1 170/317/1
f 168/318/7 171/319/7 172/320/7 169/321/7
f 171/322/42 173/323/42 174/324/42 172/325/42
f 167/326/24 170/327/24 174/328/24 173/329/24
f 173/329/53 171/319/53 168/318/53 167/326/53
f 170/330/54 169/321/54 172/320/54 174/331/54
f 175/332/1 176/333/1 177/334/1 178/335/1
f 176/336/45 179/337/45 180/338/45 177/339/45
f 179/340/42 181/341/42 182/342/42 180/343/42
f 181/344/46 175/345/46 178/346/46 182/347/46
f 181/341/44 179/340/44 176/333/44 175/332/44
f 178/348/43 177/349/43 180/343/43 182/342/43
f 183/350/1 184/351/1 185/352/1 186/353/1
f 184/354/45 187/355/45 188/356/45 185/357/45
f 187/358/42 189/359/42 190/360/42 188/361/42
f 189/362/46 183/363/46 186/364/46 190/365/46
f 189/359/44 187/358/44 184/351/44 183/350/44
f 186/366/43 185/367/43 188/361/43 190/360/43
f 15/15/1 14/14/1 18/19/1
f 5/5/1 9/9/1 18/19/1
f 23/24/1 47/49/1 18/19/1
f 24/25/1 22/23/1 18/19/1
f 27/28/1 26/27/1 18/19/1
f 46/48/1 50/52/1 18/19/1
f 55/57/1 52/54/1 18/19/1
f 51/53/1 60/64/1 18/19/1
f 63/67/1 19/20/1 18/19/1
f 34/74/42 33/75/42 66/73/42
f 11/77/42 13/78/42 66/73/42
f 21/79/42 65/80/42 66/73/42
f 58/82/42 57/83/42 66/73/42
f 59/84/42 48/85/42 66/73/42
f 42/87/42 40/88/42 66/73/42
f 39/89/42 38/90/42 66/73/42
f 37/91/42 36/71/42 66/73/42
